<?xml version="1.0" encoding="utf-8"?>
<!-- Generator: Adobe Illustrator 25.2.0, SVG Export Plug-In . SVG Version: 6.00 Build 0)  -->
<svg version="1.1" id="Layer_1" xmlns="http://www.w3.org/2000/svg" xmlns:xlink="http://www.w3.org/1999/xlink" x="0px" y="0px"
	 viewBox="0 0 792 612" style="enable-background:new 0 0 792 612;" xml:space="preserve">
<style type="text/css">
	.st0{fill:#E30613;}
	.st1{fill:#FFFFFF;stroke:#000000;stroke-miterlimit:10;}
</style>
<g>
	<path class="st0" d="M172.2,202.2c8.9-9.8,17.8-19.6,26.8-29.4c50.3-7,101.4-5.2,151.1,5.3c6.2,1.3,12.2,2.8,18.2,4.3
		c1.1,10.6,2.3,21.3,3.4,31.9c-58.4,26.9-88.3,39-89.8,36.3c-1.3-2.5,20.9-17.2,66.5-44c-59.3-13.4-110-12.1-151.1-5.2
		c-3.2,0.5-6.4,1.1-9.5,1.7c55.9,39.3,108.5,83.2,157.1,131.2c3.5,3.5,7,6.8,10.4,10.4"/>
	<path class="st0" d="M440.4,281.9c0.7-11.9,1.4-23.8,2.1-35.7c-6.7-3.4-14.1-5.1-21.6-5.2c-2.6-0.1-5.2,0.5-7.5,1.9
		c-2.5,1.9-4.6,4.3-6.1,7.1l0,0c0,0-35.8,54.1-54.6,121.8c-0.9,3.2-1.6,5.8-1.9,7.1l11.8,21.2c10.7-3.7,20.2-10.4,27.4-19.3
		l11.3,12.2c16.6-8.5,30.7-21.2,41-36.7c2.5-3.8,4.7-7.7,6.6-11.8c-7.2,5.9-15.1,10.8-23.5,14.6c-4.1,1.8-8.4,3.4-12.7,4.7
		c12.4-15.7,21-34,25.2-53.5c0.8-4.1,1.5-8,1.9-11.8l-20.2-7.5c-5.3,20.9-17,51.3-44.7,72.9c-3,2.4-6.2,4.6-9.4,6.6
		c9.2-31.9,24.2-61.9,44.2-88.4c3.4-4.5,6.9-8.7,10.3-12.7L440.4,281.9z"/>
	<path class="st0" d="M490.8,164.1l28.2,6.7c-22.1,60.4-41.2,121.8-57,184.1c-11,43.3-15.5,67.1-17.4,66.8
		c-3.9-0.7,5.9-101,33.1-209.7C482.7,192.2,487.4,175.8,490.8,164.1z"/>
	<path class="st1" d="M647.3,330c-3.3-5.4-7-10.5-11.1-15.4c-4.6-5.5-7.6-8-14.4-15.2c-3.7-3.9-8-8.7-12.7-14.3
		c-14.6,13.9-29.2,27.8-43.8,41.8c-1.5,1.4-3.7,3.3-6.1,5.9c-3.2,3.4-8.2,8.5-10.9,13.7c-5.4,10.1-3.2,21.5-2,25.7
		c0.5,1.8,5.3,18.9,22.1,26c10,4.2,19.1,2.7,22.7,2c3.8-0.7,14.8-2.9,23.2-12.7c4.4-5.2,7.3-11.6,8.4-18.3c2.1-12.9-3.1-22.9-4.8-26
		l-19.6-21.1l9.9-9.4l19.6,21.4c1.8,2.7,3.3,5.6,4.6,8.7c6.3,15.4,2.9,29.5,2,32.8c-2.6,10-8.1,18.9-15.8,25.7
		c-15.7,13.8-34.3,13-37.9,12.7c-3.4-0.2-19.1-1.6-31.8-13.5c-4.6-4.4-8.4-9.6-11.2-15.3c-1.1-2.2-4.5-8.7-5.6-16.6
		c-2.4-17.1,5.4-30.4,8.1-34.6c0.2-0.9,0.3-1.9,0.5-2.8c0.4-1.7,0.8-3.4,1.3-5.1l-1.5-3.6l-1.8,2l-4.6-4.3c1-0.3,2-0.4,3-0.5
		c0.6,0,1.3-0.1,1.8-0.3c-0.5-1.6-1-3.2-1.5-4.8c-2.7,0.5-5.3,1.4-7.6,2.8c-3.5,2.1-8.2,6.2-12.5,19.1c-2.7,8.2-6.5,19.5-4.6,34.6
		c1.9,13.5,7.5,26.2,16.3,36.7c5.2,6.2,16.8,17.8,35.4,22.9c14.1,3.9,25.7,2.1,31.1,1.3c6.5-1.1,21.1-3.6,34.9-15
		c8-6.7,14.4-15.2,18.6-24.7c3.7-7.9,6-16.5,6.6-25.2C656.6,349.9,650.7,336.5,647.3,330z M599.2,349.6c1.3,1.2,2.4,2.5,3.3,4.1
		c3.1,5.6,2.3,12.7-0.5,17.8c-4.6,8.4-13.7,9.8-15,9.9c-5.5,0.8-12.1-0.6-16.3-4.8c-2.2-2.3-3.9-5.4-4.3-6.4
		c-0.9-1.8-1.9-3.6-2.3-6.1c-0.5-3.2-0.1-6.4,1.2-9.4c6.5-6.7,13-13.4,19.4-20.1L599.2,349.6z"/>
	<path class="st1" d="M649.6,222.1c-2.8-14.9-10.2-25.5-14-30.3c-8.3-10.5-19.3-18.4-31.8-22.9c-14.9-5.1-27.5-3.6-33.4-2.8
		c-7.1,1-30.6,4.5-47.1,24.7c-7.8,9.6-10.9,19.1-12.2,23.4c-6.6,21-3.4,43.8,8.7,62.1l34.1,36.2l3.3-2.8l36.2-34.1
		c1.5-1.4,3.6-3.4,6.1-5.9c8.8-8.8,13.2-13.2,15.8-18.3c6.4-12.7,1.8-26.4,1.3-28c-4.1-11.7-12.7-17.7-15.3-19.3
		c-9.9-6.6-19.8-6.7-23.7-6.6c-3.5,0-10,0.2-17.1,3.8c-3.2,1.7-6.1,3.8-8.7,6.4c-4.5,4.6-7.9,10.2-9.9,16.3
		c-5,15.7,2.3,29.8,3.8,32.6l19.3,18.8l-10.2,9.2c-4.9-4-9.4-8.4-13.5-13.2c-1.8-2.1-5.4-6.3-7.9-10.9s-8.3-17.2-5.6-33.1
		c3.2-19.4,16.5-30.1,19.9-32.6c16.3-12.3,34-10.7,37.9-10.2c5.1,0.6,19.3,3.1,30.8,15c9.5,9.9,12.2,21,13.2,25.5
		c1.2,5.1,1.7,10.3,1.3,15.5c-0.7,8.6-3.6,16.8-8.4,23.9c-0.3,1.6-0.5,3.2-0.8,4.8l1.8,2l4.8-4.6l4.6,2l3.8-3.6l7.6-1
		c1.3-2.3,2.4-4.7,3.3-7.1c2.4-6.5,2.6-11.8,2.9-16.8C651.1,234.1,650.7,228,649.6,222.1z M561,244.2c-3.5-12.1,2.6-23.9,12-27.3
		c7.1-2.5,15.3,0.2,20.4,5.4c0.4,0.4,6.9,7.3,5.6,16c-0.4,2.4-1.3,4.8-2.5,6.9c-1.8,3-3.6,4.4-7.4,7.6c-2.1,1.8-5.2,4.6-8.9,8.2
		L561,244.2z"/>
	<path class="st0" d="M354.4,345l-11.7,30.8c-58.5,14.4-115.8,33.3-171.4,56.6c-12.1,5.1-23.9,10.2-35.4,15.5
		c51.5-34.3,106.5-63,164.1-85.5c6.9-2.7,13.8-5.3,20.7-7.8c-42.1-51.1-87.4-99.6-135.5-145c-4.3-4.1-8.6-8.1-12.9-12.1"/>
</g>
</svg>
