<svg id="Layer_1" data-name="Layer 1" xmlns="http://www.w3.org/2000/svg" viewBox="0 0 762.29 363.87"><defs><style>.cls-1{fill:#dadada;}.cls-2{fill:#e30613;}.cls-3{fill:#c6c6c6;}</style></defs><path class="cls-1" d="M197.52,322.37a167,167,0,0,0-15-20.88c-6.31-7.47-10.28-10.85-19.52-20.6-5-5.33-10.9-11.79-17.28-19.36L86.23,318.21c-2.09,1.85-5,4.53-8.29,8-4.36,4.56-11.09,11.58-14.87,18.67-7.31,13.74-4.28,29.16-2.74,34.9C61,382.17,67.52,405.34,90.4,415c13.64,5.75,25.9,3.66,30.76,2.74,5.14-1,20.06-3.93,31.45-17.28A51.78,51.78,0,0,0,164,375.56a54.23,54.23,0,0,0-6.57-35.26l-26.61-28.68,13.48-12.79,26.61,29a66.94,66.94,0,0,1,6.22,11.74c8.54,20.9,4,40.07,2.74,44.59a70.74,70.74,0,0,1-21.43,34.95c-21.31,18.74-46.59,17.59-51.5,17.27-4.62-.3-26-2.16-43.2-18.32a74.26,74.26,0,0,1-15.21-20.73A71.83,71.83,0,0,1,41,374.9c-3.28-23.18,7.31-41.21,11.06-47,.23-1.27.46-2.54.68-3.8.58-2.31,1.15-4.62,1.74-6.91l-2.06-4.84L50,315.09l-6.22-5.87a16.46,16.46,0,0,1,4.06-.65,6.27,6.27,0,0,0,2.5-.39q-1-3.29-2-6.57a30.83,30.83,0,0,0-10.38,3.8c-4.74,2.81-11.08,8.39-16.93,25.92-3.72,11.17-8.8,26.42-6.22,47a97.76,97.76,0,0,0,22.12,49.77c7.12,8.45,22.84,24.21,48,31.1A96.41,96.41,0,0,0,127,460.94c8.87-1.43,28.63-4.86,47.35-20.39A93.14,93.14,0,0,0,199.62,407a98.15,98.15,0,0,0,9-34.21A95.5,95.5,0,0,0,197.52,322.37ZM132.2,349a21.18,21.18,0,0,1,4.49,5.53c4.28,7.64,3.18,17.24-.68,24.2-6.31,11.34-18.61,13.24-20.39,13.48-7.47,1-16.45-.86-22.12-6.57A36.32,36.32,0,0,1,87.62,377a27.89,27.89,0,0,1-3.11-8.3,22.89,22.89,0,0,1,1.61-12.76l26.38-27.33Z" transform="translate(-14.01 -98.62)"/><path class="cls-1" d="M207.54,175.82a97,97,0,0,0-62.2-72.24,95.27,95.27,0,0,0-45.28-3.8c-9.59,1.3-41.55,6.14-63.94,33.55a92,92,0,0,0-16.59,31.8,99.32,99.32,0,0,0,11.75,84.33l46.31,49.08,4.5-3.8,49.07-46.31c2-1.84,4.9-4.56,8.3-8,12-12,17.95-18,21.43-24.88,8.67-17.21,2.48-35.85,1.72-38a52.23,52.23,0,0,0-20.73-26.26,55.48,55.48,0,0,0-32.17-9,49.31,49.31,0,0,0-23.16,5.18,46.39,46.39,0,0,0-11.75,8.64,57.06,57.06,0,0,0-13.48,22.12c-6.76,21.33,3.16,40.51,5.19,44.24l26.26,25.57L79,260.5a130.28,130.28,0,0,1-18.32-18c-2.42-2.9-7.29-8.49-10.71-14.86a71.18,71.18,0,0,1-7.61-44.93c4.39-26.28,22.46-40.82,27-44.24,22.1-16.75,46.14-14.47,51.5-13.82,7,.84,26.2,4.22,41.8,20.39,12.94,13.39,16.59,28.52,18,34.56a71.89,71.89,0,0,1,1.8,21.08,68.39,68.39,0,0,1-11.4,32.49c-.35,2.19-.68,4.38-1,6.57l2.42,2.74,6.57-6.22,6.22,2.74,5.18-4.84,10.37-1.37a61.59,61.59,0,0,0,4.49-9.68c3.2-8.76,3.57-16,3.87-22.78A101.82,101.82,0,0,0,207.54,175.82ZM87.27,205.88c-4.7-16.44,3.48-32.5,16.24-37,9.66-3.38,20.82.25,27.65,7.27.54.54,9.36,9.88,7.61,21.77a25.88,25.88,0,0,1-3.46,9.33c-2.39,4.05-4.91,5.95-10,10.37-2.89,2.5-7.09,6.23-12.13,11.06Z" transform="translate(-14.01 -98.62)"/><path class="cls-2" d="M182.42,203.55q11.07-12.15,22.16-24.3a362.07,362.07,0,0,1,125,4.37q7.67,1.66,15.1,3.59,1.41,13.2,2.85,26.41-72.54,33.44-74.32,30-1.59-3.07,55-36.45c-49-11.08-91-10-125-4.28-2.64.45-5.27.92-7.87,1.43a1019.78,1019.78,0,0,1,130.06,108.6c2.88,2.87,5.75,5.66,8.58,8.59" transform="translate(-14.01 -98.62)"/><path class="cls-3" d="M699.05,329.11l2-5.39.24-.7c.13-.32,23-62,25.61-68.94l-15.1-7.85Q698.23,291.52,684.67,337q.72,10.74,1.43,21.46a217.88,217.88,0,0,0,54.4-67.25,208,208,0,0,0,9.28-20.75q-19.63,65.13-39.3,130.18a383,383,0,0,0,46.45-57.17c6.17-9.28,11.63-18.37,16.44-27.15a143.6,143.6,0,0,1-28.59,30c-3.37,2.64-6.73,5-10,7.13l41.51-100-20.75-7.85a195.12,195.12,0,0,1-42.15,70A184.76,184.76,0,0,1,699.05,329.11Z" transform="translate(-14.01 -98.62)"/><path class="cls-2" d="M404.41,269.57q.9-14.77,1.77-29.55a40.36,40.36,0,0,0-17.91-4.28,11.3,11.3,0,0,0-6.22,1.54,19.39,19.39,0,0,0-5.08,5.85h0S347.35,287.91,331.8,344c-.73,2.68-1.3,4.83-1.54,5.85L340,367.34a50.09,50.09,0,0,0,22.64-16L372,361.51a90.7,90.7,0,0,0,34-30.38,82.09,82.09,0,0,0,5.46-9.73,86.15,86.15,0,0,1-19.47,12.07,84.44,84.44,0,0,1-10.51,3.89,108.55,108.55,0,0,0,20.88-44.3c.7-3.36,1.21-6.63,1.55-9.74l-16.74-6.24c-4.37,17.26-14.07,42.47-37,60.37a82.44,82.44,0,0,1-7.79,5.46,223.74,223.74,0,0,1,36.61-73.21q4.24-5.54,8.56-10.51Z" transform="translate(-14.01 -98.62)"/><path class="cls-2" d="M446.14,172l23.36,5.53a1550.68,1550.68,0,0,0-47.17,152.41c-9.11,35.85-12.83,55.57-14.43,55.29-3.25-.55,4.85-83.61,27.41-173.59C439.46,195.34,443.29,181.74,446.14,172Z" transform="translate(-14.01 -98.62)"/><path class="cls-3" d="M660.9,317.68a142.73,142.73,0,0,1-21.59,18.11c-2.58,1.78-5.15,3.4-7.66,4.87a249.29,249.29,0,0,0,27.87-72.77Q661,260.95,662,254.3L645.24,248a351.71,351.71,0,0,1-17,59.54,54.75,54.75,0,0,1-5.67,13.59c-6.71,10.55-17,15.81-23.67,18.45a312.62,312.62,0,0,0,28.62-71.09q1.89-7.44,3.47-14.62l-18.09-6.14A618.81,618.81,0,0,0,569,304.38q-4.31,6.28-8.36,12.53a247.35,247.35,0,0,0,21.25-52.57q1.56-5.65,2.79-11.15l-17.42-6.27A497.28,497.28,0,0,1,555.1,300.6q-2.34,8.22-4.86,16a96.68,96.68,0,0,1-22.65,19.15c-2.13,1.29-4.22,2.44-6.26,3.49a327,327,0,0,0,29.59-75.92c.61-2.52,1.2-4.95,1.75-7.3l-17-9.32-.77-.44c-.36,1.4-.7,2.8-1.06,4.17l-31.34-6.6,12.55-36.23L545,210q1,14.47,2.08,28.9l22.3-35.13-22.3-.34-32.38-18.11-18.45,3.77q-3.58,17.72-6.63,36.57-1.11,7-2.07,13.92l-31-.34q-.87,10.29-1.74,20.55l27.51-3.13a691.19,691.19,0,0,0-17.07,109.68q-.63,8.64-1,17c15.32-60.91,22.15-84.64,25.41-94,.23-.62,2.47-7.06,5.66-16l7-20.19,29.94,1a315.86,315.86,0,0,1-22.28,73.13c-1.7,3.78-3.46,7.55-5.23,11.15l10.79,23a144.43,144.43,0,0,0,26.42-28.56c1.2-1.74,2.37-3.49,3.47-5.23l-3.47,13.59q1.56,9.91,3.13,19.85a974.77,974.77,0,0,1,58.85-92.29q2.77-3.77,5.66-7.66a223.35,223.35,0,0,1-22.64,71c-1.36,2.62-2.76,5.19-4.17,7.66l10.79,21.25a103.56,103.56,0,0,0,20.19-21.25c2.64-3.77,5.41-8.26,5.92-8s-2.38,7.08-5.22,13.21q4.7,7.33,9.43,14.62c8.25-3.77,25.17-13.09,33.77-32.08A54.75,54.75,0,0,0,660.9,317.68Z" transform="translate(-14.01 -98.62)"/><path class="cls-3" d="M658.18,237.94l.34-33.77,19.85-.7Z" transform="translate(-14.01 -98.62)"/><path class="cls-3" d="M726.42,218.09,723,235.85l-22.3-7.3q-12.17,40-24.38,80.07a164.21,164.21,0,0,0,3.49,52.25c2.17,9.3,5.48,16.47,4.87,16.71-.9.36-10.26-16.3-15.32-36.56a130.79,130.79,0,0,1-3.77-34.13q9.23-40.72,18.47-81.47l-12.19-3.5,14.62-.69,8-38.31,20.91,10.46q-5.07,13.38-10.11,26.81Z" transform="translate(-14.01 -98.62)"/><path class="cls-2" d="M333.26,321.79l-9.72,25.53a960.35,960.35,0,0,0-141.89,46.81q-15,6.28-29.3,12.87A711,711,0,0,1,288.2,336.26q8.6-3.35,17.15-6.43A1314.08,1314.08,0,0,0,193.16,209.77q-5.35-5-10.72-10" transform="translate(-14.01 -98.62)"/></svg>