<svg id="Layer_1" data-name="Layer 1" xmlns="http://www.w3.org/2000/svg" viewBox="0 0 284.26 531.02"><defs><style>.cls-1{fill:#dadada;}</style></defs><path class="cls-1" d="M495.65,366.87a241.53,241.53,0,0,0-21.95-30.46c-9.21-10.9-15-15.84-28.49-30.07-7.33-7.77-15.9-17.21-25.22-28.25q-43.37,41.37-86.75,82.72c-3.06,2.69-7.32,6.6-12.11,11.6-6.36,6.65-16.18,16.9-21.69,27.24-10.67,20.05-6.25,42.56-4,50.94.94,3.56,10.49,37.37,43.88,51.45,19.91,8.4,37.8,5.35,44.89,4,7.5-1.39,29.27-5.73,45.9-25.22a75.57,75.57,0,0,0,16.65-36.32c4.2-25.57-6.1-45.36-9.59-51.45l-38.83-41.86L418,332.53l38.84,42.37A98.21,98.21,0,0,1,465.92,392c12.46,30.5,5.78,58.47,4,65.07a103.23,103.23,0,0,1-31.27,51c-31.11,27.36-68,25.68-75.16,25.21-6.75-.44-37.88-3.15-63.05-26.73a108.76,108.76,0,0,1-22.19-30.26c-2.26-4.42-8.89-17.19-11.1-32.79-4.78-33.83,10.67-60.14,16.14-68.59.34-1.85.68-3.7,1-5.55q1.26-5.06,2.53-10.09l-3-7.06-3.53,4-9.08-8.57a24.3,24.3,0,0,1,5.93-.94,9.44,9.44,0,0,0,3.65-.57l-3-9.59a45.27,45.27,0,0,0-15.14,5.55c-6.92,4.1-16.18,12.24-24.71,37.83-5.43,16.29-12.85,38.55-9.08,68.6a142.85,142.85,0,0,0,32.28,72.63c10.39,12.34,33.33,35.33,70.11,45.39,28,7.67,50.9,4.24,61.54,2.53,12.95-2.09,41.78-7.1,69.1-29.76a135.86,135.86,0,0,0,36.82-48.93,143.18,143.18,0,0,0,13.11-49.93C514,406.25,502.4,379.66,495.65,366.87ZM400.32,405.7a30.76,30.76,0,0,1,6.56,8.07c6.24,11.15,4.64,25.16-1,35.31-9.2,16.55-27.15,19.32-29.76,19.67-10.89,1.49-24-1.25-32.28-9.58-4.44-4.49-7.63-10.76-8.57-12.61-1.8-3.53-3.7-7.2-4.54-12.11a33.49,33.49,0,0,1,2.34-18.62q19.24-19.95,38.51-39.89Z" transform="translate(-227.83 -40.35)"/><path class="cls-1" d="M509.67,153c-5.6-29.48-20.2-50.48-27.74-60a141.16,141.16,0,0,0-63-45.42c-29.6-10.2-54.56-7.11-66.08-5.54-14,1.89-60.64,9-93.32,49a134.34,134.34,0,0,0-24.21,46.41,145,145,0,0,0,17.15,123.07L320,332.1l6.56-5.55L398.2,259c2.92-2.68,7.15-6.65,12.11-11.61,17.46-17.48,26.19-26.22,31.27-36.31,12.65-25.12,3.62-52.32,2.52-55.49a76.25,76.25,0,0,0-30.26-38.33c-19.68-13.12-39.23-13.23-46.95-13.15-6.93.06-19.73.32-33.8,7.56a67.91,67.91,0,0,0-17.15,12.61,83.49,83.49,0,0,0-19.67,32.28c-9.86,31.13,4.62,59.13,7.57,64.57l38.33,37.32L322,276.58a189.43,189.43,0,0,1-26.74-26.23c-3.53-4.23-10.64-12.39-15.63-21.69s-16.37-34-11.1-65.57c6.4-38.35,32.78-59.58,39.34-64.56C340.12,74.08,375.21,77.41,383,78.35c10.19,1.23,38.24,6.17,61,29.76,18.89,19.55,24.22,41.62,26.23,50.44a105.1,105.1,0,0,1,2.63,30.77,100,100,0,0,1-16.64,47.41c-.51,3.2-1,6.39-1.52,9.59l3.53,4,9.59-9.08,9.08,4,7.56-7.06,15.13-2a91.51,91.51,0,0,0,6.56-14.13c4.66-12.79,5.21-23.33,5.65-33.25A149.64,149.64,0,0,0,509.67,153ZM334.14,196.88c-6.86-24,5.08-47.44,23.71-54,14.09-4.93,30.38.36,40.35,10.6.78.8,13.65,14.42,11.1,31.77a37.84,37.84,0,0,1-5.05,13.62c-3.49,5.92-7.17,8.68-14.62,15.13-4.22,3.65-10.35,9.1-17.7,16.15Z" transform="translate(-227.83 -40.35)"/></svg>